<?xml version="1.0" encoding="UTF-8" standalone="no"?>
<svg xmlns="http://www.w3.org/2000/svg" width="320" height="600">
<path fill="red" d="M22 19.5L42 0L278 0L298 19.5L278 39L42 39Z" />
<path fill="red" d="M22 299.5L42 280L278 280L298 299.5L278 319L42 319Z" />
<path fill="red" d="M22 579.5L42 560L278 560L298 579.5L278 599L42 599Z" />
<path fill="red" d="M 19.5 22L0 42L0 277.5L19.5 297.5L39 277.5L39 42Z" />
<path fill="red" d="M299.5 302L280 322L280 557.5L299.5 577.5L319 557.5L319 322Z" />
</svg>
